<?xml version="1.0" encoding="UTF-8" standalone="no"?>
<!DOCTYPE svg PUBLIC "-//W3C//DTD SVG 1.1//EN" "http://www.w3.org/Graphics/SVG/1.1/DTD/svg11.dtd">
<svg width="100%" height="100%" viewBox="0 0 120 120" version="1.1" xmlns="http://www.w3.org/2000/svg" xmlns:xlink="http://www.w3.org/1999/xlink" xml:space="preserve" style="fill-rule:evenodd;clip-rule:evenodd;stroke-linejoin:round;stroke-miterlimit:1.41421;">
    <circle cx="60" cy="60" r="60" style="fill:rgb(40,44,52);"/>
    <g>
        <path d="M80.7,100.1C74.5,103.4 67.5,105.2 60,105.2C35.2,105.2 15.2,85 15.2,60C15.2,35 35.2,14.8 60,14.8C84.8,14.8 104.8,35 104.8,60C104.8,62.9 104.5,65.8 104,68.5C101.6,78.7 95,77.1 95,77.1C95,77.1 86,72.8 79.3,78C75,81.3 78,92.5 80.7,100.1Z" style="fill-rule:nonzero;"/>
        <circle cx="39.1" cy="74" r="10.7" style="fill:rgb(224,108,117);"/>
        <circle cx="35.6" cy="46.8" r="10.7" style="fill:rgb(152,195,121);"/>
        <circle cx="60" cy="32.2" r="10.7" style="fill:rgb(86,182,194);"/>
        <circle cx="84.5" cy="45.8" r="10.7" style="fill:rgb(229,192,123);"/>
    </g>
    <g transform="matrix(1,0,0,1,-47.7442,-58.1005)">
        <path d="M125.006,140.225C125.006,140.225 124.866,142.147 124.906,143.279C124.944,144.34 125.306,146.747 125.306,146.747C123.478,148.575 120.913,149.465 118.382,150.965C115.382,152.746 112.851,153.637 110.788,153.637C109.054,153.637 107.905,152.418 107.343,149.981C107.061,148.762 106.921,146.84 106.921,144.215C106.921,141.684 107.319,138.778 108.116,135.496C108.913,132.215 110.015,128.793 111.421,125.231L117.327,125.231L116.624,127.34C115.171,131.699 114.14,135.192 113.53,137.817C112.921,140.442 112.616,142.715 112.616,144.637C112.616,146.887 113.061,148.012 113.952,148.012C115.124,148.012 117.374,146.606 120.702,143.793C122.108,142.574 125.006,140.225 125.006,140.225ZM118.03,109.973C120.327,109.973 121.476,110.629 121.476,111.942C121.476,112.692 121.288,113.641 120.913,114.789C120.538,115.938 120.104,116.758 119.612,117.25C119.12,117.742 118.194,117.988 116.835,117.988C115.054,117.988 114.163,117.403 114.163,116.231C114.163,114.59 114.526,113.137 115.253,111.871C115.979,110.606 116.905,109.973 118.03,109.973Z" style="fill:rgb(198,120,221);fill-rule:nonzero;"/>
    </g>
</svg>
